<svg width="27" height="27" viewBox="0 0 27 27" fill="none" xmlns="http://www.w3.org/2000/svg">
<circle cx="13.5" cy="13.5" r="12.4615" stroke="white" stroke-width="2.07692"/>
<path d="M14.4311 5.74922L14.2724 17.4295H12.4315L12.2728 5.74922H14.4311ZM13.352 22.127C12.9605 22.127 12.6246 21.9868 12.3442 21.7064C12.0638 21.426 11.9237 21.0901 11.9237 20.6987C11.9237 20.3072 12.0638 19.9713 12.3442 19.6909C12.6246 19.4106 12.9605 19.2704 13.352 19.2704C13.7434 19.2704 14.0793 19.4106 14.3597 19.6909C14.6401 19.9713 14.7802 20.3072 14.7802 20.6987C14.7802 20.9579 14.7141 21.1959 14.5819 21.4128C14.4549 21.6297 14.283 21.8043 14.0661 21.9365C13.8545 22.0635 13.6165 22.127 13.352 22.127Z" fill="white"/>
</svg>
